<svg xmlns="http://www.w3.org/2000/svg" width="2400" height="1535" viewBox="0 0 2400 1535" role="img" aria-labelledby="title desc"><title id="title">Red Hat OpenShift AI 3.3 demo capability map</title><desc id="desc">Canonical Red Hat OpenShift AI 3.3 demo capability map.</desc><style>.display{font-family:'Red Hat Display','Arial',sans-serif}.body{font-family:'Red Hat Text','Arial',sans-serif}</style><defs><filter id="lift" x="-20%" y="-20%" width="140%" height="140%"><feDropShadow dx="0" dy="6" stdDeviation="5" flood-color="#000" flood-opacity="0.55"/></filter><filter id="panelShadow" x="-8%" y="-8%" width="116%" height="116%"><feDropShadow dx="0" dy="10" stdDeviation="9" flood-color="#000" flood-opacity="0.45"/></filter></defs><g filter="url(#panelShadow)"><rect x="140" y="26" width="2170" height="82" rx="2" fill="#1f1f1f" stroke="#383838" stroke-width="2"/><text x="1200.0" y="60" class="display" font-size="42" fill="#ffffff" font-weight="700" text-anchor="middle">Red Hat OpenShift AI 3.3 demo capability map</text><text x="1200.0" y="91" class="body" font-size="21" fill="#c7c7c7" text-anchor="middle">One governed platform across private, generative, predictive, and edge AI.</text><rect x="140" y="130" width="210" height="845" rx="2" fill="#147878" stroke="#147878" stroke-width="0"/><text x="245.0" y="547.5" class="body" font-size="22" fill="#ffffff" font-weight="700" text-anchor="middle">Red Hat</text>
<text x="245.0" y="573.5" class="body" font-size="22" fill="#ffffff" font-weight="700" text-anchor="middle">OpenShift AI</text><rect x="140" y="1000" width="210" height="415" rx="2" fill="#ee0000" stroke="#ee0000" stroke-width="0"/><text x="245.0" y="1202.5" class="body" font-size="22" fill="#ffffff" font-weight="700" text-anchor="middle">Red Hat</text>
<text x="245.0" y="1228.5" class="body" font-size="22" fill="#ffffff" font-weight="700" text-anchor="middle">OpenShift</text><rect x="365" y="130" width="250" height="190" rx="2" fill="#147878" stroke="#147878" stroke-width="0"/><text x="490.0" y="220.0" class="body" font-size="22" fill="#ffffff" font-weight="700" text-anchor="middle">AI lifecycle</text>
<text x="490.0" y="246.0" class="body" font-size="22" fill="#ffffff" font-weight="700" text-anchor="middle">and governance</text><rect x="635" y="130" width="1675" height="190" rx="2" fill="#1f1f1f" stroke="#383838" stroke-width="2"/><g><rect x="665.0" y="154.0" width="525.0" height="61.0" rx="2" fill="#292929" stroke="#383838" stroke-width="2.0"/><rect x="665.0" y="154.0" width="10" height="61.0" rx="2" fill="#147878" stroke="#147878" stroke-width="0"/><text x="927.5" y="180.5" class="body" font-size="19" fill="#ffffff" font-weight="550" text-anchor="middle">Data ingestion</text>
<text x="927.5" y="202.5" class="body" font-size="19" fill="#ffffff" font-weight="550" text-anchor="middle">and grounding</text></g><g><rect x="1210.0" y="154.0" width="525.0" height="61.0" rx="2" fill="#292929" stroke="#383838" stroke-width="2.0"/><rect x="1210.0" y="154.0" width="10" height="61.0" rx="2" fill="#147878" stroke="#147878" stroke-width="0"/><text x="1472.5" y="180.5" class="body" font-size="19" fill="#ffffff" font-weight="550" text-anchor="middle">Model development</text>
<text x="1472.5" y="202.5" class="body" font-size="19" fill="#ffffff" font-weight="550" text-anchor="middle">and customization</text></g><g><rect x="1755.0" y="154.0" width="525.0" height="61.0" rx="2" fill="#292929" stroke="#383838" stroke-width="2.0"/><rect x="1755.0" y="154.0" width="10" height="61.0" rx="2" fill="#147878" stroke="#147878" stroke-width="0"/><text x="2017.5" y="180.5" class="body" font-size="19" fill="#ffffff" font-weight="550" text-anchor="middle">Model training</text>
<text x="2017.5" y="202.5" class="body" font-size="19" fill="#ffffff" font-weight="550" text-anchor="middle">and experimentation</text></g><g><rect x="665.0" y="235.0" width="525.0" height="61.0" rx="2" fill="#292929" stroke="#383838" stroke-width="2.0"/><rect x="665.0" y="235.0" width="10" height="61.0" rx="2" fill="#147878" stroke="#147878" stroke-width="0"/><text x="927.5" y="261.5" class="body" font-size="19" fill="#ffffff" font-weight="550" text-anchor="middle">Evaluation</text>
<text x="927.5" y="283.5" class="body" font-size="19" fill="#ffffff" font-weight="550" text-anchor="middle">and benchmarking</text></g><g><rect x="1210.0" y="235.0" width="525.0" height="61.0" rx="2" fill="#292929" stroke="#383838" stroke-width="2.0"/><rect x="1210.0" y="235.0" width="10" height="61.0" rx="2" fill="#147878" stroke="#147878" stroke-width="0"/><text x="1472.5" y="261.5" class="body" font-size="19" fill="#ffffff" font-weight="550" text-anchor="middle">Model catalog</text>
<text x="1472.5" y="283.5" class="body" font-size="19" fill="#ffffff" font-weight="550" text-anchor="middle">and registry</text></g><g><rect x="1755.0" y="235.0" width="525.0" height="61.0" rx="2" fill="#292929" stroke="#383838" stroke-width="2.0"/><rect x="1755.0" y="235.0" width="10" height="61.0" rx="2" fill="#147878" stroke="#147878" stroke-width="0"/><text x="2017.5" y="261.5" class="body" font-size="19" fill="#ffffff" font-weight="550" text-anchor="middle">Model observability</text>
<text x="2017.5" y="283.5" class="body" font-size="19" fill="#ffffff" font-weight="550" text-anchor="middle">and governance</text></g><rect x="365" y="345" width="250" height="170" rx="2" fill="#147878" stroke="#147878" stroke-width="0"/><text x="490.0" y="412.0" class="body" font-size="22" fill="#ffffff" font-weight="700" text-anchor="middle">AI pipelines</text>
<text x="490.0" y="438.0" class="body" font-size="22" fill="#ffffff" font-weight="700" text-anchor="middle">and model</text>
<text x="490.0" y="464.0" class="body" font-size="22" fill="#ffffff" font-weight="700" text-anchor="middle">operations</text><rect x="635" y="345" width="1675" height="170" rx="2" fill="#1f1f1f" stroke="#383838" stroke-width="2"/><g><rect x="665.0" y="369.0" width="525.0" height="51.0" rx="2" fill="#292929" stroke="#383838" stroke-width="2.0"/><rect x="665.0" y="369.0" width="10" height="51.0" rx="2" fill="#147878" stroke="#147878" stroke-width="0"/><text x="927.5" y="390.5" class="body" font-size="19" fill="#ffffff" font-weight="550" text-anchor="middle">AI pipelines</text>
<text x="927.5" y="412.5" class="body" font-size="19" fill="#ffffff" font-weight="550" text-anchor="middle">(KFP v2)</text></g><g><rect x="1210.0" y="369.0" width="525.0" height="51.0" rx="2" fill="#292929" stroke="#383838" stroke-width="2.0"/><rect x="1210.0" y="369.0" width="10" height="51.0" rx="2" fill="#147878" stroke="#147878" stroke-width="0"/><text x="1472.5" y="390.5" class="body" font-size="19" fill="#ffffff" font-weight="550" text-anchor="middle">RAG ingestion</text>
<text x="1472.5" y="412.5" class="body" font-size="19" fill="#ffffff" font-weight="550" text-anchor="middle">pipeline</text></g><g><rect x="1755.0" y="369.0" width="525.0" height="51.0" rx="2" fill="#292929" stroke="#383838" stroke-width="2.0"/><rect x="1755.0" y="369.0" width="10" height="51.0" rx="2" fill="#147878" stroke="#147878" stroke-width="0"/><text x="2017.5" y="390.5" class="body" font-size="19" fill="#ffffff" font-weight="550" text-anchor="middle">LLM-as-judge</text>
<text x="2017.5" y="412.5" class="body" font-size="19" fill="#ffffff" font-weight="550" text-anchor="middle">evaluation</text></g><g><rect x="665.0" y="440.0" width="525.0" height="51.0" rx="2" fill="#292929" stroke="#383838" stroke-width="2.0"/><rect x="665.0" y="440.0" width="10" height="51.0" rx="2" fill="#147878" stroke="#147878" stroke-width="0"/><text x="927.5" y="461.5" class="body" font-size="19" fill="#ffffff" font-weight="550" text-anchor="middle">GuideLLM</text>
<text x="927.5" y="483.5" class="body" font-size="19" fill="#ffffff" font-weight="550" text-anchor="middle">benchmarking</text></g><g><rect x="1210.0" y="440.0" width="525.0" height="51.0" rx="2" fill="#292929" stroke="#383838" stroke-width="2.0"/><rect x="1210.0" y="440.0" width="10" height="51.0" rx="2" fill="#147878" stroke="#147878" stroke-width="0"/><text x="1472.5" y="461.5" class="body" font-size="19" fill="#ffffff" font-weight="550" text-anchor="middle">MLOps training</text>
<text x="1472.5" y="483.5" class="body" font-size="19" fill="#ffffff" font-weight="550" text-anchor="middle">pipeline</text></g><g><rect x="1755.0" y="440.0" width="525.0" height="51.0" rx="2" fill="#292929" stroke="#383838" stroke-width="2.0"/><rect x="1755.0" y="440.0" width="10" height="51.0" rx="2" fill="#147878" stroke="#147878" stroke-width="0"/><text x="2017.5" y="461.5" class="body" font-size="19" fill="#ffffff" font-weight="550" text-anchor="middle">ModelCar</text>
<text x="2017.5" y="483.5" class="body" font-size="19" fill="#ffffff" font-weight="550" text-anchor="middle">edge promotion</text></g><rect x="365" y="540" width="250" height="260" rx="2" fill="#147878" stroke="#147878" stroke-width="0"/><text x="490.0" y="652.0" class="body" font-size="22" fill="#ffffff" font-weight="700" text-anchor="middle">Serving,</text>
<text x="490.0" y="678.0" class="body" font-size="22" fill="#ffffff" font-weight="700" text-anchor="middle">GenAI, and</text>
<text x="490.0" y="704.0" class="body" font-size="22" fill="#ffffff" font-weight="700" text-anchor="middle">agentic apps</text><rect x="635" y="540" width="1675" height="260" rx="2" fill="#1f1f1f" stroke="#383838" stroke-width="2"/><g><rect x="665.0" y="564.0" width="525.0" height="57.333333333333336" rx="2" fill="#292929" stroke="#383838" stroke-width="2.0"/><rect x="665.0" y="564.0" width="10" height="57.333333333333336" rx="2" fill="#147878" stroke="#147878" stroke-width="0"/><text x="927.5" y="588.6666666666666" class="body" font-size="19" fill="#ffffff" font-weight="550" text-anchor="middle">Optimized</text>
<text x="927.5" y="610.6666666666666" class="body" font-size="19" fill="#ffffff" font-weight="550" text-anchor="middle">model serving</text></g><g><rect x="1210.0" y="564.0" width="525.0" height="57.333333333333336" rx="2" fill="#292929" stroke="#383838" stroke-width="2.0"/><rect x="1210.0" y="564.0" width="10" height="57.333333333333336" rx="2" fill="#147878" stroke="#147878" stroke-width="0"/><text x="1472.5" y="588.6666666666666" class="body" font-size="19" fill="#ffffff" font-weight="550" text-anchor="middle">Red Hat AI</text>
<text x="1472.5" y="610.6666666666666" class="body" font-size="19" fill="#ffffff" font-weight="550" text-anchor="middle">Inference Server</text></g><g><rect x="1755.0" y="564.0" width="525.0" height="57.333333333333336" rx="2" fill="#292929" stroke="#383838" stroke-width="2.0"/><rect x="1755.0" y="564.0" width="10" height="57.333333333333336" rx="2" fill="#147878" stroke="#147878" stroke-width="0"/><text x="2017.5" y="588.6666666666666" class="body" font-size="19" fill="#ffffff" font-weight="550" text-anchor="middle">KServe</text>
<text x="2017.5" y="610.6666666666666" class="body" font-size="19" fill="#ffffff" font-weight="550" text-anchor="middle">RawDeployment</text></g><g><rect x="665.0" y="641.3333333333334" width="525.0" height="57.333333333333336" rx="2" fill="#292929" stroke="#383838" stroke-width="2.0"/><rect x="665.0" y="641.3333333333334" width="10" height="57.333333333333336" rx="2" fill="#147878" stroke="#147878" stroke-width="0"/><text x="927.5" y="666.0" class="body" font-size="19" fill="#ffffff" font-weight="550" text-anchor="middle">OpenVINO</text>
<text x="927.5" y="688.0" class="body" font-size="19" fill="#ffffff" font-weight="550" text-anchor="middle">predictive serving</text></g><g><rect x="1210.0" y="641.3333333333334" width="525.0" height="57.333333333333336" rx="2" fill="#292929" stroke="#383838" stroke-width="2.0"/><rect x="1210.0" y="641.3333333333334" width="10" height="57.333333333333336" rx="2" fill="#147878" stroke="#147878" stroke-width="0"/><text x="1472.5" y="666.0" class="body" font-size="19" fill="#ffffff" font-weight="550" text-anchor="middle">GenAI Studio</text>
<text x="1472.5" y="688.0" class="body" font-size="19" fill="#ffffff" font-weight="550" text-anchor="middle">and Playground</text></g><g><rect x="1755.0" y="641.3333333333334" width="525.0" height="57.333333333333336" rx="2" fill="#292929" stroke="#383838" stroke-width="2.0"/><rect x="1755.0" y="641.3333333333334" width="10" height="57.333333333333336" rx="2" fill="#147878" stroke="#147878" stroke-width="0"/><text x="2017.5" y="666.0" class="body" font-size="19" fill="#ffffff" font-weight="550" text-anchor="middle">Llama Stack API</text>
<text x="2017.5" y="688.0" class="body" font-size="19" fill="#ffffff" font-weight="550" text-anchor="middle">and RAG</text></g><g><rect x="665.0" y="718.6666666666667" width="525.0" height="57.333333333333336" rx="2" fill="#292929" stroke="#383838" stroke-width="2.0"/><rect x="665.0" y="718.6666666666667" width="10" height="57.333333333333336" rx="2" fill="#147878" stroke="#147878" stroke-width="0"/><text x="927.5" y="743.3333333333334" class="body" font-size="19" fill="#ffffff" font-weight="550" text-anchor="middle">AI safety</text>
<text x="927.5" y="765.3333333333334" class="body" font-size="19" fill="#ffffff" font-weight="550" text-anchor="middle">and security</text></g><g><rect x="1210.0" y="718.6666666666667" width="525.0" height="57.333333333333336" rx="2" fill="#292929" stroke="#383838" stroke-width="2.0"/><rect x="1210.0" y="718.6666666666667" width="10" height="57.333333333333336" rx="2" fill="#147878" stroke="#147878" stroke-width="0"/><text x="1472.5" y="743.3333333333334" class="body" font-size="19" fill="#ffffff" font-weight="550" text-anchor="middle">MCP and</text>
<text x="1472.5" y="765.3333333333334" class="body" font-size="19" fill="#ffffff" font-weight="550" text-anchor="middle">agentic APIs</text></g><g><rect x="1755.0" y="718.6666666666667" width="525.0" height="57.333333333333336" rx="2" fill="#292929" stroke="#383838" stroke-width="2.0"/><rect x="1755.0" y="718.6666666666667" width="10" height="57.333333333333336" rx="2" fill="#147878" stroke="#147878" stroke-width="0"/><text x="2017.5" y="733.3333333333334" class="body" font-size="18" fill="#ffffff" font-weight="550" text-anchor="middle">Disconnected</text>
<text x="2017.5" y="754.3333333333334" class="body" font-size="18" fill="#ffffff" font-weight="550" text-anchor="middle">environments</text>
<text x="2017.5" y="775.3333333333334" class="body" font-size="18" fill="#ffffff" font-weight="550" text-anchor="middle">and edge</text></g><rect x="365" y="825" width="250" height="150" rx="2" fill="#147878" stroke="#147878" stroke-width="0"/><text x="490.0" y="882.0" class="body" font-size="22" fill="#ffffff" font-weight="700" text-anchor="middle">Intelligent GPU</text>
<text x="490.0" y="908.0" class="body" font-size="22" fill="#ffffff" font-weight="700" text-anchor="middle">and hardware</text>
<text x="490.0" y="934.0" class="body" font-size="22" fill="#ffffff" font-weight="700" text-anchor="middle">speed</text><rect x="635" y="825" width="1675" height="150" rx="2" fill="#1f1f1f" stroke="#383838" stroke-width="2"/><g><rect x="665.0" y="849" width="388.75" height="76" rx="2" fill="#292929" stroke="#383838" stroke-width="2.0"/><rect x="665.0" y="849" width="10" height="76" rx="2" fill="#147878" stroke="#147878" stroke-width="0"/><text x="859.375" y="883.0" class="body" font-size="19" fill="#ffffff" font-weight="550" text-anchor="middle">GPU acceleration</text>
<text x="859.375" y="905.0" class="body" font-size="19" fill="#ffffff" font-weight="550" text-anchor="middle">and optimization</text></g><g><rect x="1073.75" y="849" width="388.75" height="76" rx="2" fill="#292929" stroke="#383838" stroke-width="2.0"/><rect x="1073.75" y="849" width="10" height="76" rx="2" fill="#147878" stroke="#147878" stroke-width="0"/><text x="1268.125" y="883.0" class="body" font-size="19" fill="#ffffff" font-weight="550" text-anchor="middle">Hardware</text>
<text x="1268.125" y="905.0" class="body" font-size="19" fill="#ffffff" font-weight="550" text-anchor="middle">profiles</text></g><g><rect x="1482.5" y="849" width="388.75" height="76" rx="2" fill="#292929" stroke="#383838" stroke-width="2.0"/><rect x="1482.5" y="849" width="10" height="76" rx="2" fill="#147878" stroke="#147878" stroke-width="0"/><text x="1676.875" y="883.0" class="body" font-size="19" fill="#ffffff" font-weight="550" text-anchor="middle">Self-service</text>
<text x="1676.875" y="905.0" class="body" font-size="19" fill="#ffffff" font-weight="550" text-anchor="middle">accelerator access</text></g><g><rect x="1891.25" y="849" width="388.75" height="76" rx="2" fill="#292929" stroke="#383838" stroke-width="2.0"/><rect x="1891.25" y="849" width="10" height="76" rx="2" fill="#147878" stroke="#147878" stroke-width="0"/><text x="2085.625" y="883.0" class="body" font-size="19" fill="#ffffff" font-weight="550" text-anchor="middle">GPU visibility</text>
<text x="2085.625" y="905.0" class="body" font-size="19" fill="#ffffff" font-weight="550" text-anchor="middle">and consumption</text></g><rect x="365" y="1000" width="250" height="220" rx="2" fill="#ee0000" stroke="#ee0000" stroke-width="0"/><text x="490.0" y="1092.0" class="body" font-size="22" fill="#ffffff" font-weight="700" text-anchor="middle">Container</text>
<text x="490.0" y="1118.0" class="body" font-size="22" fill="#ffffff" font-weight="700" text-anchor="middle">platform</text>
<text x="490.0" y="1144.0" class="body" font-size="22" fill="#ffffff" font-weight="700" text-anchor="middle">services</text><rect x="635" y="1000" width="1675" height="220" rx="2" fill="#1f1f1f" stroke="#383838" stroke-width="2"/><g><rect x="665.0" y="1024" width="388.75" height="76" rx="2" fill="#292929" stroke="#383838" stroke-width="2.0"/><rect x="665.0" y="1024" width="10" height="76" rx="2" fill="#ee0000" stroke="#ee0000" stroke-width="0"/><text x="859.375" y="1058.0" class="body" font-size="19" fill="#ffffff" font-weight="550" text-anchor="middle">Operators and</text>
<text x="859.375" y="1080.0" class="body" font-size="19" fill="#ffffff" font-weight="550" text-anchor="middle">lifecycle management</text></g><g><rect x="1073.75" y="1024" width="388.75" height="76" rx="2" fill="#292929" stroke="#383838" stroke-width="2.0"/><rect x="1073.75" y="1024" width="10" height="76" rx="2" fill="#ee0000" stroke="#ee0000" stroke-width="0"/><text x="1268.125" y="1058.0" class="body" font-size="19" fill="#ffffff" font-weight="550" text-anchor="middle">OpenShift GitOps</text>
<text x="1268.125" y="1080.0" class="body" font-size="19" fill="#ffffff" font-weight="550" text-anchor="middle">and Argo CD</text></g><g><rect x="1482.5" y="1024" width="388.75" height="76" rx="2" fill="#292929" stroke="#383838" stroke-width="2.0"/><rect x="1482.5" y="1024" width="10" height="76" rx="2" fill="#ee0000" stroke="#ee0000" stroke-width="0"/><text x="1676.875" y="1058.0" class="body" font-size="19" fill="#ffffff" font-weight="550" text-anchor="middle">OpenShift</text>
<text x="1676.875" y="1080.0" class="body" font-size="19" fill="#ffffff" font-weight="550" text-anchor="middle">Serverless</text></g><g><rect x="1891.25" y="1024" width="388.75" height="76" rx="2" fill="#292929" stroke="#383838" stroke-width="2.0"/><rect x="1891.25" y="1024" width="10" height="76" rx="2" fill="#ee0000" stroke="#ee0000" stroke-width="0"/><text x="2085.625" y="1058.0" class="body" font-size="19" fill="#ffffff" font-weight="550" text-anchor="middle">Service Mesh</text>
<text x="2085.625" y="1080.0" class="body" font-size="19" fill="#ffffff" font-weight="550" text-anchor="middle">networking</text></g><g><rect x="665.0" y="1120" width="388.75" height="76" rx="2" fill="#292929" stroke="#383838" stroke-width="2.0"/><rect x="665.0" y="1120" width="10" height="76" rx="2" fill="#ee0000" stroke="#ee0000" stroke-width="0"/><text x="859.375" y="1154.0" class="body" font-size="19" fill="#ffffff" font-weight="550" text-anchor="middle">Identity, RBAC,</text>
<text x="859.375" y="1176.0" class="body" font-size="19" fill="#ffffff" font-weight="550" text-anchor="middle">and multitenancy</text></g><g><rect x="1073.75" y="1120" width="388.75" height="76" rx="2" fill="#292929" stroke="#383838" stroke-width="2.0"/><rect x="1073.75" y="1120" width="10" height="76" rx="2" fill="#ee0000" stroke="#ee0000" stroke-width="0"/><text x="1268.125" y="1154.0" class="body" font-size="19" fill="#ffffff" font-weight="550" text-anchor="middle">Monitoring</text>
<text x="1268.125" y="1176.0" class="body" font-size="19" fill="#ffffff" font-weight="550" text-anchor="middle">and metrics</text></g><g><rect x="1482.5" y="1120" width="388.75" height="76" rx="2" fill="#292929" stroke="#383838" stroke-width="2.0"/><rect x="1482.5" y="1120" width="10" height="76" rx="2" fill="#ee0000" stroke="#ee0000" stroke-width="0"/><text x="1676.875" y="1154.0" class="body" font-size="19" fill="#ffffff" font-weight="550" text-anchor="middle">OpenShift Pipelines</text>
<text x="1676.875" y="1176.0" class="body" font-size="19" fill="#ffffff" font-weight="550" text-anchor="middle">(Tekton)</text></g><g><rect x="1891.25" y="1120" width="388.75" height="76" rx="2" fill="#292929" stroke="#383838" stroke-width="2.0"/><rect x="1891.25" y="1120" width="10" height="76" rx="2" fill="#ee0000" stroke="#ee0000" stroke-width="0"/><text x="2085.625" y="1154.0" class="body" font-size="19" fill="#ffffff" font-weight="550" text-anchor="middle">Routes, secrets,</text>
<text x="2085.625" y="1176.0" class="body" font-size="19" fill="#ffffff" font-weight="550" text-anchor="middle">and storage</text></g><rect x="365" y="1245" width="250" height="170" rx="2" fill="#ee0000" stroke="#ee0000" stroke-width="0"/><text x="490.0" y="1312.0" class="body" font-size="22" fill="#ffffff" font-weight="700" text-anchor="middle">Hybrid</text>
<text x="490.0" y="1338.0" class="body" font-size="22" fill="#ffffff" font-weight="700" text-anchor="middle">infrastructure</text>
<text x="490.0" y="1364.0" class="body" font-size="22" fill="#ffffff" font-weight="700" text-anchor="middle">and edge</text><rect x="635" y="1245" width="1675" height="170" rx="2" fill="#1f1f1f" stroke="#383838" stroke-width="2"/><g><rect x="665.0" y="1269.0" width="525.0" height="51.0" rx="2" fill="#292929" stroke="#383838" stroke-width="2.0"/><rect x="665.0" y="1269.0" width="10" height="51.0" rx="2" fill="#ee0000" stroke="#ee0000" stroke-width="0"/><text x="927.5" y="1290.5" class="body" font-size="19" fill="#ffffff" font-weight="550" text-anchor="middle">Cloud GPU</text>
<text x="927.5" y="1312.5" class="body" font-size="19" fill="#ffffff" font-weight="550" text-anchor="middle">cluster</text></g><g><rect x="1210.0" y="1269.0" width="525.0" height="51.0" rx="2" fill="#292929" stroke="#383838" stroke-width="2.0"/><rect x="1210.0" y="1269.0" width="10" height="51.0" rx="2" fill="#ee0000" stroke="#ee0000" stroke-width="0"/><text x="1472.5" y="1290.5" class="body" font-size="19" fill="#ffffff" font-weight="550" text-anchor="middle">GPU worker</text>
<text x="1472.5" y="1312.5" class="body" font-size="19" fill="#ffffff" font-weight="550" text-anchor="middle">nodes</text></g><g><rect x="1755.0" y="1269.0" width="525.0" height="51.0" rx="2" fill="#292929" stroke="#383838" stroke-width="2.0"/><rect x="1755.0" y="1269.0" width="10" height="51.0" rx="2" fill="#ee0000" stroke="#ee0000" stroke-width="0"/><text x="2017.5" y="1290.5" class="body" font-size="19" fill="#ffffff" font-weight="550" text-anchor="middle">Object storage</text>
<text x="2017.5" y="1312.5" class="body" font-size="19" fill="#ffffff" font-weight="550" text-anchor="middle">and data connections</text></g><g><rect x="665.0" y="1340.0" width="525.0" height="51.0" rx="2" fill="#292929" stroke="#383838" stroke-width="2.0"/><rect x="665.0" y="1340.0" width="10" height="51.0" rx="2" fill="#ee0000" stroke="#ee0000" stroke-width="0"/><text x="927.5" y="1361.5" class="body" font-size="19" fill="#ffffff" font-weight="550" text-anchor="middle">Edge deployment</text>
<text x="927.5" y="1383.5" class="body" font-size="19" fill="#ffffff" font-weight="550" text-anchor="middle">target</text></g><g><rect x="1210.0" y="1340.0" width="525.0" height="51.0" rx="2" fill="#292929" stroke="#383838" stroke-width="2.0"/><rect x="1210.0" y="1340.0" width="10" height="51.0" rx="2" fill="#ee0000" stroke="#ee0000" stroke-width="0"/><text x="1472.5" y="1361.5" class="body" font-size="19" fill="#ffffff" font-weight="550" text-anchor="middle">MicroShift</text>
<text x="1472.5" y="1383.5" class="body" font-size="19" fill="#ffffff" font-weight="550" text-anchor="middle">edge runtime</text></g><g><rect x="1755.0" y="1340.0" width="525.0" height="51.0" rx="2" fill="#292929" stroke="#383838" stroke-width="2.0"/><rect x="1755.0" y="1340.0" width="10" height="51.0" rx="2" fill="#ee0000" stroke="#ee0000" stroke-width="0"/><text x="2017.5" y="1361.5" class="body" font-size="19" fill="#ffffff" font-weight="550" text-anchor="middle">Embedded</text>
<text x="2017.5" y="1383.5" class="body" font-size="19" fill="#ffffff" font-weight="550" text-anchor="middle">edge GitOps</text></g><rect x="650" y="1457" width="34" height="34" rx="2" fill="#292929" stroke="#383838" stroke-width="2"/><rect x="650" y="1457" width="10" height="17" rx="0" fill="#147878" stroke="#147878" stroke-width="0"/><rect x="650" y="1474" width="10" height="17" rx="0" fill="#ee0000" stroke="#ee0000" stroke-width="0"/><rect x="650" y="1457" width="34" height="34" rx="2" fill="none" stroke="#383838" stroke-width="2"/><text x="708" y="1481" class="body" font-size="22" fill="#e0e0e0">Capability used in this demo</text><text x="1125" y="1481" class="body" font-size="22" fill="#c7c7c7">Left stripe and product rail show Red Hat product layer ownership</text></g></svg>
