<svg xmlns="http://www.w3.org/2000/svg" width="2400" height="1390" viewBox="0 0 2400 1390" role="img" aria-labelledby="title desc"><title id="title">Step 09: Guardrails</title><desc id="desc">Capability map showing new, previously introduced, and future capabilities for Step 09: Guardrails.</desc><style>.display{font-family:'Red Hat Display','Arial',sans-serif}.body{font-family:'Red Hat Text','Arial',sans-serif}</style><defs><filter id="lift" x="-20%" y="-20%" width="140%" height="140%"><feDropShadow dx="0" dy="6" stdDeviation="5" flood-color="#000" flood-opacity="0.55"/></filter><filter id="panelShadow" x="-8%" y="-8%" width="116%" height="116%"><feDropShadow dx="0" dy="10" stdDeviation="9" flood-color="#000" flood-opacity="0.45"/></filter></defs><g filter="url(#panelShadow)"><rect x="140" y="26" width="2170" height="82" rx="2" fill="#1f1f1f" stroke="#383838" stroke-width="2"/><text x="1200.0" y="60" class="display" font-size="42" fill="#ffffff" font-weight="700" text-anchor="middle"><tspan fill="#c7c7c7" font-weight="500">Step 09:</tspan> Guardrails</text><text x="1200.0" y="91" class="body" font-size="21" fill="#c7c7c7" text-anchor="middle">Safety checks become a shared platform control point.</text><rect x="140" y="130" width="210" height="710" rx="2" fill="#147878" stroke="#147878" stroke-width="0"/><text x="245.0" y="480.0" class="body" font-size="22" fill="#ffffff" font-weight="700" text-anchor="middle">Red Hat</text>
<text x="245.0" y="506.0" class="body" font-size="22" fill="#ffffff" font-weight="700" text-anchor="middle">OpenShift AI</text><rect x="140" y="865" width="210" height="395" rx="2" fill="#ee0000" stroke="#ee0000" stroke-width="0"/><text x="245.0" y="1057.5" class="body" font-size="22" fill="#ffffff" font-weight="700" text-anchor="middle">Red Hat</text>
<text x="245.0" y="1083.5" class="body" font-size="22" fill="#ffffff" font-weight="700" text-anchor="middle">OpenShift</text><rect x="365" y="130" width="250" height="150" rx="2" fill="#147878" stroke="#147878" stroke-width="0"/><text x="490.0" y="200.0" class="body" font-size="22" fill="#ffffff" font-weight="700" text-anchor="middle">MLOps</text>
<text x="490.0" y="226.0" class="body" font-size="22" fill="#ffffff" font-weight="700" text-anchor="middle">automation</text><rect x="635" y="130" width="1675" height="150" rx="2" fill="#1f1f1f" stroke="#383838" stroke-width="2"/><g><rect x="665.0" y="154" width="213.57142857142858" height="76" rx="2" fill="#292929" stroke="#383838" stroke-width="2.0"/><rect x="665.0" y="154" width="10" height="76" rx="2" fill="#147878" stroke="#147878" stroke-width="0"/><text x="771.7857142857143" y="199.0" class="body" font-size="19" fill="#ffffff" font-weight="550" text-anchor="middle">Ingest</text></g><g opacity="0.62"><rect x="898.5714285714286" y="154" width="213.57142857142858" height="76" rx="2" fill="#1f1f1f" stroke="#383838" stroke-width="2.0"/><text x="1005.3571428571429" y="199.0" class="body" font-size="19" fill="#707070" font-weight="450" text-anchor="middle">Train</text></g><g><rect x="1132.142857142857" y="154" width="213.57142857142858" height="76" rx="2" fill="#292929" stroke="#383838" stroke-width="2.0"/><rect x="1132.142857142857" y="154" width="10" height="76" rx="2" fill="#147878" stroke="#147878" stroke-width="0"/><text x="1238.9285714285713" y="199.0" class="body" font-size="19" fill="#ffffff" font-weight="550" text-anchor="middle">Evaluate</text></g><g opacity="0.62"><rect x="1365.7142857142858" y="154" width="213.57142857142858" height="76" rx="2" fill="#1f1f1f" stroke="#383838" stroke-width="2.0"/><text x="1472.5" y="199.0" class="body" font-size="19" fill="#707070" font-weight="450" text-anchor="middle">Register</text></g><g opacity="0.62"><rect x="1599.2857142857142" y="154" width="213.57142857142858" height="76" rx="2" fill="#1f1f1f" stroke="#383838" stroke-width="2.0"/><text x="1706.0714285714284" y="199.0" class="body" font-size="19" fill="#707070" font-weight="450" text-anchor="middle">Deploy</text></g><g><rect x="1832.857142857143" y="154" width="213.57142857142858" height="76" rx="2" fill="#292929" stroke="#383838" stroke-width="2.0"/><rect x="1832.857142857143" y="154" width="10" height="76" rx="2" fill="#147878" stroke="#147878" stroke-width="0"/><text x="1939.642857142857" y="199.0" class="body" font-size="19" fill="#ffffff" font-weight="550" text-anchor="middle">Monitor</text></g><g opacity="0.62"><rect x="2066.4285714285716" y="154" width="213.57142857142858" height="76" rx="2" fill="#1f1f1f" stroke="#383838" stroke-width="2.0"/><text x="2173.214285714286" y="199.0" class="body" font-size="19" fill="#707070" font-weight="450" text-anchor="middle">Retrain</text></g><rect x="365" y="305" width="250" height="360" rx="2" fill="#147878" stroke="#147878" stroke-width="0"/><text x="490.0" y="467.0" class="body" font-size="22" fill="#ffffff" font-weight="700" text-anchor="middle">OpenShift AI</text>
<text x="490.0" y="493.0" class="body" font-size="22" fill="#ffffff" font-weight="700" text-anchor="middle">platform</text>
<text x="490.0" y="519.0" class="body" font-size="22" fill="#ffffff" font-weight="700" text-anchor="middle">capabilities</text><rect x="635" y="305" width="1675" height="360" rx="2" fill="#1f1f1f" stroke="#383838" stroke-width="2"/><g><rect x="665.0" y="329.0" width="388.75" height="63.0" rx="2" fill="#292929" stroke="#383838" stroke-width="2.0"/><rect x="665.0" y="329.0" width="10" height="63.0" rx="2" fill="#147878" stroke="#147878" stroke-width="0"/><text x="859.375" y="356.5" class="body" font-size="19" fill="#ffffff" font-weight="550" text-anchor="middle">Catalog</text>
<text x="859.375" y="378.5" class="body" font-size="19" fill="#ffffff" font-weight="550" text-anchor="middle">and registry</text></g><g opacity="0.62"><rect x="1073.75" y="329.0" width="388.75" height="63.0" rx="2" fill="#1f1f1f" stroke="#383838" stroke-width="2.0"/><text x="1268.125" y="367.5" class="body" font-size="19" fill="#707070" font-weight="450" text-anchor="middle">Models-as-a-service</text></g><g><rect x="1482.5" y="329.0" width="388.75" height="63.0" rx="2" fill="#292929" stroke="#383838" stroke-width="2.0"/><rect x="1482.5" y="329.0" width="10" height="63.0" rx="2" fill="#147878" stroke="#147878" stroke-width="0"/><text x="1676.875" y="356.5" class="body" font-size="19" fill="#ffffff" font-weight="550" text-anchor="middle">Model development</text>
<text x="1676.875" y="378.5" class="body" font-size="19" fill="#ffffff" font-weight="550" text-anchor="middle">and customization</text></g><g opacity="0.62"><rect x="1891.25" y="329.0" width="388.75" height="63.0" rx="2" fill="#1f1f1f" stroke="#383838" stroke-width="2.0"/><text x="2085.625" y="356.5" class="body" font-size="19" fill="#707070" font-weight="450" text-anchor="middle">Model training</text>
<text x="2085.625" y="378.5" class="body" font-size="19" fill="#707070" font-weight="450" text-anchor="middle">and experimentation</text></g><g opacity="0.62"><rect x="665.0" y="412.0" width="388.75" height="63.0" rx="2" fill="#1f1f1f" stroke="#383838" stroke-width="2.0"/><text x="859.375" y="450.5" class="body" font-size="19" fill="#707070" font-weight="450" text-anchor="middle">Feature store</text></g><g><rect x="1073.75" y="412.0" width="388.75" height="63.0" rx="2" fill="#292929" stroke="#383838" stroke-width="2.0"/><rect x="1073.75" y="412.0" width="10" height="63.0" rx="2" fill="#147878" stroke="#147878" stroke-width="0"/><text x="1268.125" y="439.5" class="body" font-size="19" fill="#ffffff" font-weight="550" text-anchor="middle">Optimized</text>
<text x="1268.125" y="461.5" class="body" font-size="19" fill="#ffffff" font-weight="550" text-anchor="middle">model serving</text></g><g><rect x="1482.5" y="412.0" width="388.75" height="63.0" rx="2" fill="#292929" stroke="#383838" stroke-width="2.0"/><rect x="1482.5" y="412.0" width="10" height="63.0" rx="2" fill="#147878" stroke="#147878" stroke-width="0"/><text x="1676.875" y="439.5" class="body" font-size="19" fill="#ffffff" font-weight="550" text-anchor="middle">AI pipelines</text>
<text x="1676.875" y="461.5" class="body" font-size="19" fill="#ffffff" font-weight="550" text-anchor="middle">(KFP v2)</text></g><g><rect x="1891.25" y="412.0" width="388.75" height="63.0" rx="2" fill="#292929" stroke="#383838" stroke-width="2.0"/><rect x="1891.25" y="412.0" width="10" height="63.0" rx="2" fill="#147878" stroke="#147878" stroke-width="0"/><text x="2085.625" y="439.5" class="body" font-size="19" fill="#ffffff" font-weight="550" text-anchor="middle">Evaluation</text>
<text x="2085.625" y="461.5" class="body" font-size="19" fill="#ffffff" font-weight="550" text-anchor="middle">and benchmarking</text></g><g><rect x="665.0" y="495.0" width="388.75" height="63.0" rx="2" fill="#292929" stroke="#383838" stroke-width="2.0"/><rect x="665.0" y="495.0" width="10" height="63.0" rx="2" fill="#147878" stroke="#147878" stroke-width="0"/><text x="859.375" y="522.5" class="body" font-size="19" fill="#ffffff" font-weight="550" text-anchor="middle">Model observability</text>
<text x="859.375" y="544.5" class="body" font-size="19" fill="#ffffff" font-weight="550" text-anchor="middle">and governance</text></g><g filter="url(#lift)"><rect x="1073.75" y="495.0" width="388.75" height="63.0" rx="2" fill="#151515" stroke="#147878" stroke-width="5.0"/><text x="1268.125" y="522.5" class="body" font-size="19" fill="#ffffff" font-weight="700" text-anchor="middle">AI safety</text>
<text x="1268.125" y="544.5" class="body" font-size="19" fill="#ffffff" font-weight="700" text-anchor="middle">and security</text></g><g><rect x="1482.5" y="495.0" width="388.75" height="63.0" rx="2" fill="#292929" stroke="#383838" stroke-width="2.0"/><rect x="1482.5" y="495.0" width="10" height="63.0" rx="2" fill="#147878" stroke="#147878" stroke-width="0"/><text x="1676.875" y="522.5" class="body" font-size="19" fill="#ffffff" font-weight="550" text-anchor="middle">GenAI Studio</text>
<text x="1676.875" y="544.5" class="body" font-size="19" fill="#ffffff" font-weight="550" text-anchor="middle">and Playground</text></g><g opacity="0.62"><rect x="1891.25" y="495.0" width="388.75" height="63.0" rx="2" fill="#1f1f1f" stroke="#383838" stroke-width="2.0"/><text x="2085.625" y="522.5" class="body" font-size="19" fill="#707070" font-weight="450" text-anchor="middle">MCP and</text>
<text x="2085.625" y="544.5" class="body" font-size="19" fill="#707070" font-weight="450" text-anchor="middle">agentic APIs</text></g><g><rect x="665.0" y="578.0" width="388.75" height="63.0" rx="2" fill="#292929" stroke="#383838" stroke-width="2.0"/><rect x="665.0" y="578.0" width="10" height="63.0" rx="2" fill="#147878" stroke="#147878" stroke-width="0"/><text x="859.375" y="605.5" class="body" font-size="19" fill="#ffffff" font-weight="550" text-anchor="middle">Data ingestion</text>
<text x="859.375" y="627.5" class="body" font-size="19" fill="#ffffff" font-weight="550" text-anchor="middle">and grounding</text></g><g opacity="0.62"><rect x="1073.75" y="578.0" width="388.75" height="63.0" rx="2" fill="#1f1f1f" stroke="#383838" stroke-width="2.0"/><text x="1268.125" y="595.5" class="body" font-size="18" fill="#707070" font-weight="450" text-anchor="middle">Disconnected</text>
<text x="1268.125" y="616.5" class="body" font-size="18" fill="#707070" font-weight="450" text-anchor="middle">environments</text>
<text x="1268.125" y="637.5" class="body" font-size="18" fill="#707070" font-weight="450" text-anchor="middle">and edge</text></g><rect x="365" y="690" width="250" height="150" rx="2" fill="#147878" stroke="#147878" stroke-width="0"/><text x="490.0" y="747.0" class="body" font-size="22" fill="#ffffff" font-weight="700" text-anchor="middle">Intelligent GPU</text>
<text x="490.0" y="773.0" class="body" font-size="22" fill="#ffffff" font-weight="700" text-anchor="middle">and hardware</text>
<text x="490.0" y="799.0" class="body" font-size="22" fill="#ffffff" font-weight="700" text-anchor="middle">speed</text><rect x="635" y="690" width="1675" height="150" rx="2" fill="#1f1f1f" stroke="#383838" stroke-width="2"/><g><rect x="665.0" y="714" width="252.5" height="76" rx="2" fill="#292929" stroke="#383838" stroke-width="2.0"/><rect x="665.0" y="714" width="10" height="76" rx="2" fill="#147878" stroke="#147878" stroke-width="0"/><text x="791.25" y="748.0" class="body" font-size="19" fill="#ffffff" font-weight="550" text-anchor="middle">GPU acceleration</text>
<text x="791.25" y="770.0" class="body" font-size="19" fill="#ffffff" font-weight="550" text-anchor="middle">and optimization</text></g><g><rect x="937.5" y="714" width="252.5" height="76" rx="2" fill="#292929" stroke="#383838" stroke-width="2.0"/><rect x="937.5" y="714" width="10" height="76" rx="2" fill="#147878" stroke="#147878" stroke-width="0"/><text x="1063.75" y="748.0" class="body" font-size="19" fill="#ffffff" font-weight="550" text-anchor="middle">Hardware</text>
<text x="1063.75" y="770.0" class="body" font-size="19" fill="#ffffff" font-weight="550" text-anchor="middle">profiles</text></g><g><rect x="1210.0" y="714" width="252.5" height="76" rx="2" fill="#292929" stroke="#383838" stroke-width="2.0"/><rect x="1210.0" y="714" width="10" height="76" rx="2" fill="#147878" stroke="#147878" stroke-width="0"/><text x="1336.25" y="748.0" class="body" font-size="19" fill="#ffffff" font-weight="550" text-anchor="middle">Self-service</text>
<text x="1336.25" y="770.0" class="body" font-size="19" fill="#ffffff" font-weight="550" text-anchor="middle">accelerator access</text></g><g><rect x="1482.5" y="714" width="252.5" height="76" rx="2" fill="#292929" stroke="#383838" stroke-width="2.0"/><rect x="1482.5" y="714" width="10" height="76" rx="2" fill="#147878" stroke="#147878" stroke-width="0"/><text x="1608.75" y="748.0" class="body" font-size="19" fill="#ffffff" font-weight="550" text-anchor="middle">GPU visibility</text>
<text x="1608.75" y="770.0" class="body" font-size="19" fill="#ffffff" font-weight="550" text-anchor="middle">and consumption</text></g><g><rect x="1755.0" y="714" width="252.5" height="76" rx="2" fill="#292929" stroke="#383838" stroke-width="2.0"/><rect x="1755.0" y="714" width="10" height="76" rx="2" fill="#147878" stroke="#147878" stroke-width="0"/><text x="1881.25" y="748.0" class="body" font-size="19" fill="#ffffff" font-weight="550" text-anchor="middle">NFD</text>
<text x="1881.25" y="770.0" class="body" font-size="19" fill="#ffffff" font-weight="550" text-anchor="middle">Operator</text></g><g><rect x="2027.5" y="714" width="252.5" height="76" rx="2" fill="#292929" stroke="#383838" stroke-width="2.0"/><rect x="2027.5" y="714" width="10" height="76" rx="2" fill="#147878" stroke="#147878" stroke-width="0"/><text x="2153.75" y="748.0" class="body" font-size="19" fill="#ffffff" font-weight="550" text-anchor="middle">NVIDIA GPU</text>
<text x="2153.75" y="770.0" class="body" font-size="19" fill="#ffffff" font-weight="550" text-anchor="middle">Operator</text></g><rect x="365" y="865" width="250" height="220" rx="2" fill="#ee0000" stroke="#ee0000" stroke-width="0"/><text x="490.0" y="957.0" class="body" font-size="22" fill="#ffffff" font-weight="700" text-anchor="middle">Container</text>
<text x="490.0" y="983.0" class="body" font-size="22" fill="#ffffff" font-weight="700" text-anchor="middle">platform</text>
<text x="490.0" y="1009.0" class="body" font-size="22" fill="#ffffff" font-weight="700" text-anchor="middle">services</text><rect x="635" y="865" width="1675" height="220" rx="2" fill="#1f1f1f" stroke="#383838" stroke-width="2"/><g><rect x="665.0" y="889" width="388.75" height="76" rx="2" fill="#292929" stroke="#383838" stroke-width="2.0"/><rect x="665.0" y="889" width="10" height="76" rx="2" fill="#ee0000" stroke="#ee0000" stroke-width="0"/><text x="859.375" y="923.0" class="body" font-size="19" fill="#ffffff" font-weight="550" text-anchor="middle">Operators and</text>
<text x="859.375" y="945.0" class="body" font-size="19" fill="#ffffff" font-weight="550" text-anchor="middle">lifecycle management</text></g><g><rect x="1073.75" y="889" width="388.75" height="76" rx="2" fill="#292929" stroke="#383838" stroke-width="2.0"/><rect x="1073.75" y="889" width="10" height="76" rx="2" fill="#ee0000" stroke="#ee0000" stroke-width="0"/><text x="1268.125" y="923.0" class="body" font-size="19" fill="#ffffff" font-weight="550" text-anchor="middle">OpenShift GitOps</text>
<text x="1268.125" y="945.0" class="body" font-size="19" fill="#ffffff" font-weight="550" text-anchor="middle">and Argo CD</text></g><g><rect x="1482.5" y="889" width="388.75" height="76" rx="2" fill="#292929" stroke="#383838" stroke-width="2.0"/><rect x="1482.5" y="889" width="10" height="76" rx="2" fill="#ee0000" stroke="#ee0000" stroke-width="0"/><text x="1676.875" y="923.0" class="body" font-size="19" fill="#ffffff" font-weight="550" text-anchor="middle">OpenShift</text>
<text x="1676.875" y="945.0" class="body" font-size="19" fill="#ffffff" font-weight="550" text-anchor="middle">Serverless</text></g><g><rect x="1891.25" y="889" width="388.75" height="76" rx="2" fill="#292929" stroke="#383838" stroke-width="2.0"/><rect x="1891.25" y="889" width="10" height="76" rx="2" fill="#ee0000" stroke="#ee0000" stroke-width="0"/><text x="2085.625" y="923.0" class="body" font-size="19" fill="#ffffff" font-weight="550" text-anchor="middle">Service Mesh</text>
<text x="2085.625" y="945.0" class="body" font-size="19" fill="#ffffff" font-weight="550" text-anchor="middle">networking</text></g><g><rect x="665.0" y="985" width="388.75" height="76" rx="2" fill="#292929" stroke="#383838" stroke-width="2.0"/><rect x="665.0" y="985" width="10" height="76" rx="2" fill="#ee0000" stroke="#ee0000" stroke-width="0"/><text x="859.375" y="1019.0" class="body" font-size="19" fill="#ffffff" font-weight="550" text-anchor="middle">Identity, RBAC,</text>
<text x="859.375" y="1041.0" class="body" font-size="19" fill="#ffffff" font-weight="550" text-anchor="middle">and multitenancy</text></g><g><rect x="1073.75" y="985" width="388.75" height="76" rx="2" fill="#292929" stroke="#383838" stroke-width="2.0"/><rect x="1073.75" y="985" width="10" height="76" rx="2" fill="#ee0000" stroke="#ee0000" stroke-width="0"/><text x="1268.125" y="1019.0" class="body" font-size="19" fill="#ffffff" font-weight="550" text-anchor="middle">Monitoring</text>
<text x="1268.125" y="1041.0" class="body" font-size="19" fill="#ffffff" font-weight="550" text-anchor="middle">and metrics</text></g><g opacity="0.62"><rect x="1482.5" y="985" width="388.75" height="76" rx="2" fill="#1f1f1f" stroke="#383838" stroke-width="2.0"/><text x="1676.875" y="1019.0" class="body" font-size="19" fill="#707070" font-weight="450" text-anchor="middle">OpenShift Pipelines</text>
<text x="1676.875" y="1041.0" class="body" font-size="19" fill="#707070" font-weight="450" text-anchor="middle">(Tekton)</text></g><g><rect x="1891.25" y="985" width="388.75" height="76" rx="2" fill="#292929" stroke="#383838" stroke-width="2.0"/><rect x="1891.25" y="985" width="10" height="76" rx="2" fill="#ee0000" stroke="#ee0000" stroke-width="0"/><text x="2085.625" y="1019.0" class="body" font-size="19" fill="#ffffff" font-weight="550" text-anchor="middle">Routes, secrets,</text>
<text x="2085.625" y="1041.0" class="body" font-size="19" fill="#ffffff" font-weight="550" text-anchor="middle">and storage</text></g><rect x="365" y="1110" width="250" height="150" rx="2" fill="#ee0000" stroke="#ee0000" stroke-width="0"/><text x="490.0" y="1167.0" class="body" font-size="22" fill="#ffffff" font-weight="700" text-anchor="middle">Hybrid</text>
<text x="490.0" y="1193.0" class="body" font-size="22" fill="#ffffff" font-weight="700" text-anchor="middle">infrastructure</text>
<text x="490.0" y="1219.0" class="body" font-size="22" fill="#ffffff" font-weight="700" text-anchor="middle">and edge</text><rect x="635" y="1110" width="1675" height="150" rx="2" fill="#1f1f1f" stroke="#383838" stroke-width="2"/><g><rect x="665.0" y="1134" width="252.5" height="76" rx="2" fill="#292929" stroke="#383838" stroke-width="2.0"/><rect x="665.0" y="1134" width="10" height="76" rx="2" fill="#ee0000" stroke="#ee0000" stroke-width="0"/><text x="791.25" y="1168.0" class="body" font-size="19" fill="#ffffff" font-weight="550" text-anchor="middle">Cloud GPU</text>
<text x="791.25" y="1190.0" class="body" font-size="19" fill="#ffffff" font-weight="550" text-anchor="middle">cluster</text></g><g><rect x="937.5" y="1134" width="252.5" height="76" rx="2" fill="#292929" stroke="#383838" stroke-width="2.0"/><rect x="937.5" y="1134" width="10" height="76" rx="2" fill="#ee0000" stroke="#ee0000" stroke-width="0"/><text x="1063.75" y="1168.0" class="body" font-size="19" fill="#ffffff" font-weight="550" text-anchor="middle">GPU worker</text>
<text x="1063.75" y="1190.0" class="body" font-size="19" fill="#ffffff" font-weight="550" text-anchor="middle">nodes</text></g><g><rect x="1210.0" y="1134" width="252.5" height="76" rx="2" fill="#292929" stroke="#383838" stroke-width="2.0"/><rect x="1210.0" y="1134" width="10" height="76" rx="2" fill="#ee0000" stroke="#ee0000" stroke-width="0"/><text x="1336.25" y="1168.0" class="body" font-size="19" fill="#ffffff" font-weight="550" text-anchor="middle">Object storage</text>
<text x="1336.25" y="1190.0" class="body" font-size="19" fill="#ffffff" font-weight="550" text-anchor="middle">and data connections</text></g><g opacity="0.62"><rect x="1482.5" y="1134" width="252.5" height="76" rx="2" fill="#1f1f1f" stroke="#383838" stroke-width="2.0"/><text x="1608.75" y="1168.0" class="body" font-size="19" fill="#707070" font-weight="450" text-anchor="middle">Edge deployment</text>
<text x="1608.75" y="1190.0" class="body" font-size="19" fill="#707070" font-weight="450" text-anchor="middle">target</text></g><g opacity="0.62"><rect x="1755.0" y="1134" width="252.5" height="76" rx="2" fill="#1f1f1f" stroke="#383838" stroke-width="2.0"/><text x="1881.25" y="1168.0" class="body" font-size="19" fill="#707070" font-weight="450" text-anchor="middle">MicroShift</text>
<text x="1881.25" y="1190.0" class="body" font-size="19" fill="#707070" font-weight="450" text-anchor="middle">edge runtime</text></g><g opacity="0.62"><rect x="2027.5" y="1134" width="252.5" height="76" rx="2" fill="#1f1f1f" stroke="#383838" stroke-width="2.0"/><text x="2153.75" y="1168.0" class="body" font-size="19" fill="#707070" font-weight="450" text-anchor="middle">Embedded</text>
<text x="2153.75" y="1190.0" class="body" font-size="19" fill="#707070" font-weight="450" text-anchor="middle">edge GitOps</text></g><rect x="440" y="1312" width="34" height="34" rx="2" fill="#151515" stroke="#147878" stroke-width="5"/><text x="498" y="1336" class="body" font-size="21" fill="#e0e0e0">New in this step</text><rect x="800" y="1312" width="34" height="34" rx="2" fill="#292929" stroke="#383838" stroke-width="2"/><rect x="800" y="1312" width="10" height="17" rx="0" fill="#147878" stroke="#147878" stroke-width="0"/><rect x="800" y="1329" width="10" height="17" rx="0" fill="#ee0000" stroke="#ee0000" stroke-width="0"/><rect x="800" y="1312" width="34" height="34" rx="2" fill="none" stroke="#383838" stroke-width="2"/><text x="858" y="1336" class="body" font-size="21" fill="#e0e0e0">Previously introduced</text><rect x="1225" y="1312" width="34" height="34" rx="2" fill="#1f1f1f" stroke="#383838" stroke-width="2" opacity="0.62"/><text x="1283" y="1336" class="body" font-size="21" fill="#e0e0e0">Not introduced yet</text><text x="1645" y="1336" class="body" font-size="21" fill="#c7c7c7">Border and stripe colors follow the product layer</text></g></svg>
