<svg xmlns="http://www.w3.org/2000/svg" width="2400" height="1535" viewBox="0 0 2400 1535" role="img" aria-labelledby="title desc"><title id="title">Step 09: Guardrails</title><desc id="desc">Capability map showing new, previously introduced, and future capabilities for Step 09: Guardrails.</desc><style>.display{font-family:'Red Hat Display','Arial',sans-serif}.body{font-family:'Red Hat Text','Arial',sans-serif}</style><defs><filter id="lift" x="-20%" y="-20%" width="140%" height="140%"><feDropShadow dx="0" dy="6" stdDeviation="5" flood-color="#000" flood-opacity="0.55"/></filter><filter id="panelShadow" x="-8%" y="-8%" width="116%" height="116%"><feDropShadow dx="0" dy="10" stdDeviation="9" flood-color="#000" flood-opacity="0.45"/></filter></defs><g filter="url(#panelShadow)"><rect x="140" y="26" width="2170" height="82" rx="2" fill="#1f1f1f" stroke="#383838" stroke-width="2"/><text x="1200.0" y="60" class="display" font-size="42" fill="#ffffff" font-weight="700" text-anchor="middle"><tspan fill="#c7c7c7" font-weight="500">Step 09:</tspan> Guardrails</text><text x="1200.0" y="91" class="body" font-size="21" fill="#c7c7c7" text-anchor="middle">Safety checks become a shared platform control point.</text><rect x="140" y="130" width="210" height="845" rx="2" fill="#147878" stroke="#147878" stroke-width="0"/><text x="245.0" y="547.5" class="body" font-size="22" fill="#ffffff" font-weight="700" text-anchor="middle">Red Hat</text>
<text x="245.0" y="573.5" class="body" font-size="22" fill="#ffffff" font-weight="700" text-anchor="middle">OpenShift AI</text><rect x="140" y="1000" width="210" height="415" rx="2" fill="#ee0000" stroke="#ee0000" stroke-width="0"/><text x="245.0" y="1202.5" class="body" font-size="22" fill="#ffffff" font-weight="700" text-anchor="middle">Red Hat</text>
<text x="245.0" y="1228.5" class="body" font-size="22" fill="#ffffff" font-weight="700" text-anchor="middle">OpenShift</text><rect x="365" y="130" width="250" height="190" rx="2" fill="#147878" stroke="#147878" stroke-width="0"/><text x="490.0" y="220.0" class="body" font-size="22" fill="#ffffff" font-weight="700" text-anchor="middle">AI lifecycle</text>
<text x="490.0" y="246.0" class="body" font-size="22" fill="#ffffff" font-weight="700" text-anchor="middle">and governance</text><rect x="635" y="130" width="1675" height="190" rx="2" fill="#1f1f1f" stroke="#383838" stroke-width="2"/><g><rect x="665.0" y="154.0" width="525.0" height="61.0" rx="2" fill="#292929" stroke="#383838" stroke-width="2.0"/><rect x="665.0" y="154.0" width="10" height="61.0" rx="2" fill="#147878" stroke="#147878" stroke-width="0"/><text x="927.5" y="180.5" class="body" font-size="19" fill="#ffffff" font-weight="550" text-anchor="middle">Data ingestion</text>
<text x="927.5" y="202.5" class="body" font-size="19" fill="#ffffff" font-weight="550" text-anchor="middle">and grounding</text></g><g><rect x="1210.0" y="154.0" width="525.0" height="61.0" rx="2" fill="#292929" stroke="#383838" stroke-width="2.0"/><rect x="1210.0" y="154.0" width="10" height="61.0" rx="2" fill="#147878" stroke="#147878" stroke-width="0"/><text x="1472.5" y="180.5" class="body" font-size="19" fill="#ffffff" font-weight="550" text-anchor="middle">Model development</text>
<text x="1472.5" y="202.5" class="body" font-size="19" fill="#ffffff" font-weight="550" text-anchor="middle">and customization</text></g><g opacity="0.62"><rect x="1755.0" y="154.0" width="525.0" height="61.0" rx="2" fill="#1f1f1f" stroke="#383838" stroke-width="2.0"/><text x="2017.5" y="180.5" class="body" font-size="19" fill="#707070" font-weight="450" text-anchor="middle">Model training</text>
<text x="2017.5" y="202.5" class="body" font-size="19" fill="#707070" font-weight="450" text-anchor="middle">and experimentation</text></g><g><rect x="665.0" y="235.0" width="525.0" height="61.0" rx="2" fill="#292929" stroke="#383838" stroke-width="2.0"/><rect x="665.0" y="235.0" width="10" height="61.0" rx="2" fill="#147878" stroke="#147878" stroke-width="0"/><text x="927.5" y="261.5" class="body" font-size="19" fill="#ffffff" font-weight="550" text-anchor="middle">Model evaluation</text>
<text x="927.5" y="283.5" class="body" font-size="19" fill="#ffffff" font-weight="550" text-anchor="middle">and benchmarking</text></g><g><rect x="1210.0" y="235.0" width="525.0" height="61.0" rx="2" fill="#292929" stroke="#383838" stroke-width="2.0"/><rect x="1210.0" y="235.0" width="10" height="61.0" rx="2" fill="#147878" stroke="#147878" stroke-width="0"/><text x="1472.5" y="261.5" class="body" font-size="19" fill="#ffffff" font-weight="550" text-anchor="middle">Model catalog</text>
<text x="1472.5" y="283.5" class="body" font-size="19" fill="#ffffff" font-weight="550" text-anchor="middle">and registry</text></g><g><rect x="1755.0" y="235.0" width="525.0" height="61.0" rx="2" fill="#292929" stroke="#383838" stroke-width="2.0"/><rect x="1755.0" y="235.0" width="10" height="61.0" rx="2" fill="#147878" stroke="#147878" stroke-width="0"/><text x="2017.5" y="261.5" class="body" font-size="19" fill="#ffffff" font-weight="550" text-anchor="middle">Model observability</text>
<text x="2017.5" y="283.5" class="body" font-size="19" fill="#ffffff" font-weight="550" text-anchor="middle">and governance</text></g><rect x="365" y="345" width="250" height="260" rx="2" fill="#147878" stroke="#147878" stroke-width="0"/><text x="490.0" y="457.0" class="body" font-size="22" fill="#ffffff" font-weight="700" text-anchor="middle">Serving,</text>
<text x="490.0" y="483.0" class="body" font-size="22" fill="#ffffff" font-weight="700" text-anchor="middle">GenAI, and</text>
<text x="490.0" y="509.0" class="body" font-size="22" fill="#ffffff" font-weight="700" text-anchor="middle">agentic apps</text><rect x="635" y="345" width="1675" height="260" rx="2" fill="#1f1f1f" stroke="#383838" stroke-width="2"/><g><rect x="665.0" y="369.0" width="525.0" height="57.333333333333336" rx="2" fill="#292929" stroke="#383838" stroke-width="2.0"/><rect x="665.0" y="369.0" width="10" height="57.333333333333336" rx="2" fill="#147878" stroke="#147878" stroke-width="0"/><text x="927.5" y="393.6666666666667" class="body" font-size="19" fill="#ffffff" font-weight="550" text-anchor="middle">Optimized</text>
<text x="927.5" y="415.6666666666667" class="body" font-size="19" fill="#ffffff" font-weight="550" text-anchor="middle">model serving</text></g><g><rect x="1210.0" y="369.0" width="525.0" height="57.333333333333336" rx="2" fill="#292929" stroke="#383838" stroke-width="2.0"/><rect x="1210.0" y="369.0" width="10" height="57.333333333333336" rx="2" fill="#147878" stroke="#147878" stroke-width="0"/><text x="1472.5" y="393.6666666666667" class="body" font-size="19" fill="#ffffff" font-weight="550" text-anchor="middle">Red Hat AI</text>
<text x="1472.5" y="415.6666666666667" class="body" font-size="19" fill="#ffffff" font-weight="550" text-anchor="middle">Inference Server</text></g><g><rect x="1755.0" y="369.0" width="525.0" height="57.333333333333336" rx="2" fill="#292929" stroke="#383838" stroke-width="2.0"/><rect x="1755.0" y="369.0" width="10" height="57.333333333333336" rx="2" fill="#147878" stroke="#147878" stroke-width="0"/><text x="2017.5" y="393.6666666666667" class="body" font-size="19" fill="#ffffff" font-weight="550" text-anchor="middle">KServe</text>
<text x="2017.5" y="415.6666666666667" class="body" font-size="19" fill="#ffffff" font-weight="550" text-anchor="middle">RawDeployment</text></g><g opacity="0.62"><rect x="665.0" y="446.33333333333337" width="525.0" height="57.333333333333336" rx="2" fill="#1f1f1f" stroke="#383838" stroke-width="2.0"/><text x="927.5" y="471.00000000000006" class="body" font-size="19" fill="#707070" font-weight="450" text-anchor="middle">OpenVINO</text>
<text x="927.5" y="493.00000000000006" class="body" font-size="19" fill="#707070" font-weight="450" text-anchor="middle">predictive serving</text></g><g><rect x="1210.0" y="446.33333333333337" width="525.0" height="57.333333333333336" rx="2" fill="#292929" stroke="#383838" stroke-width="2.0"/><rect x="1210.0" y="446.33333333333337" width="10" height="57.333333333333336" rx="2" fill="#147878" stroke="#147878" stroke-width="0"/><text x="1472.5" y="471.00000000000006" class="body" font-size="19" fill="#ffffff" font-weight="550" text-anchor="middle">GenAI Studio</text>
<text x="1472.5" y="493.00000000000006" class="body" font-size="19" fill="#ffffff" font-weight="550" text-anchor="middle">and Playground</text></g><g><rect x="1755.0" y="446.33333333333337" width="525.0" height="57.333333333333336" rx="2" fill="#292929" stroke="#383838" stroke-width="2.0"/><rect x="1755.0" y="446.33333333333337" width="10" height="57.333333333333336" rx="2" fill="#147878" stroke="#147878" stroke-width="0"/><text x="2017.5" y="471.00000000000006" class="body" font-size="19" fill="#ffffff" font-weight="550" text-anchor="middle">Llama Stack API</text>
<text x="2017.5" y="493.00000000000006" class="body" font-size="19" fill="#ffffff" font-weight="550" text-anchor="middle">and RAG</text></g><g filter="url(#lift)"><rect x="665.0" y="523.6666666666667" width="525.0" height="57.333333333333336" rx="2" fill="#151515" stroke="#147878" stroke-width="5.0"/><text x="927.5" y="548.3333333333334" class="body" font-size="19" fill="#ffffff" font-weight="700" text-anchor="middle">AI guardrails</text>
<text x="927.5" y="570.3333333333334" class="body" font-size="19" fill="#ffffff" font-weight="700" text-anchor="middle">and safety</text></g><g opacity="0.62"><rect x="1210.0" y="523.6666666666667" width="525.0" height="57.333333333333336" rx="2" fill="#1f1f1f" stroke="#383838" stroke-width="2.0"/><text x="1472.5" y="548.3333333333334" class="body" font-size="19" fill="#707070" font-weight="450" text-anchor="middle">MCP tool</text>
<text x="1472.5" y="570.3333333333334" class="body" font-size="19" fill="#707070" font-weight="450" text-anchor="middle">integration</text></g><g opacity="0.62"><rect x="1755.0" y="523.6666666666667" width="525.0" height="57.333333333333336" rx="2" fill="#1f1f1f" stroke="#383838" stroke-width="2.0"/><text x="2017.5" y="538.3333333333334" class="body" font-size="18" fill="#707070" font-weight="450" text-anchor="middle">Disconnected</text>
<text x="2017.5" y="559.3333333333334" class="body" font-size="18" fill="#707070" font-weight="450" text-anchor="middle">environments</text>
<text x="2017.5" y="580.3333333333334" class="body" font-size="18" fill="#707070" font-weight="450" text-anchor="middle">and edge</text></g><rect x="365" y="630" width="250" height="170" rx="2" fill="#147878" stroke="#147878" stroke-width="0"/><text x="490.0" y="697.0" class="body" font-size="22" fill="#ffffff" font-weight="700" text-anchor="middle">Pipelines</text>
<text x="490.0" y="723.0" class="body" font-size="22" fill="#ffffff" font-weight="700" text-anchor="middle">and model</text>
<text x="490.0" y="749.0" class="body" font-size="22" fill="#ffffff" font-weight="700" text-anchor="middle">operations</text><rect x="635" y="630" width="1675" height="170" rx="2" fill="#1f1f1f" stroke="#383838" stroke-width="2"/><g><rect x="665.0" y="654.0" width="525.0" height="51.0" rx="2" fill="#292929" stroke="#383838" stroke-width="2.0"/><rect x="665.0" y="654.0" width="10" height="51.0" rx="2" fill="#147878" stroke="#147878" stroke-width="0"/><text x="927.5" y="675.5" class="body" font-size="19" fill="#ffffff" font-weight="550" text-anchor="middle">AI pipelines</text>
<text x="927.5" y="697.5" class="body" font-size="19" fill="#ffffff" font-weight="550" text-anchor="middle">(KFP v2)</text></g><g><rect x="1210.0" y="654.0" width="525.0" height="51.0" rx="2" fill="#292929" stroke="#383838" stroke-width="2.0"/><rect x="1210.0" y="654.0" width="10" height="51.0" rx="2" fill="#147878" stroke="#147878" stroke-width="0"/><text x="1472.5" y="675.5" class="body" font-size="19" fill="#ffffff" font-weight="550" text-anchor="middle">RAG ingestion</text>
<text x="1472.5" y="697.5" class="body" font-size="19" fill="#ffffff" font-weight="550" text-anchor="middle">pipeline</text></g><g><rect x="1755.0" y="654.0" width="525.0" height="51.0" rx="2" fill="#292929" stroke="#383838" stroke-width="2.0"/><rect x="1755.0" y="654.0" width="10" height="51.0" rx="2" fill="#147878" stroke="#147878" stroke-width="0"/><text x="2017.5" y="675.5" class="body" font-size="19" fill="#ffffff" font-weight="550" text-anchor="middle">LLM-as-judge</text>
<text x="2017.5" y="697.5" class="body" font-size="19" fill="#ffffff" font-weight="550" text-anchor="middle">evaluation</text></g><g><rect x="665.0" y="725.0" width="525.0" height="51.0" rx="2" fill="#292929" stroke="#383838" stroke-width="2.0"/><rect x="665.0" y="725.0" width="10" height="51.0" rx="2" fill="#147878" stroke="#147878" stroke-width="0"/><text x="927.5" y="746.5" class="body" font-size="19" fill="#ffffff" font-weight="550" text-anchor="middle">GuideLLM</text>
<text x="927.5" y="768.5" class="body" font-size="19" fill="#ffffff" font-weight="550" text-anchor="middle">benchmarking</text></g><g opacity="0.62"><rect x="1210.0" y="725.0" width="525.0" height="51.0" rx="2" fill="#1f1f1f" stroke="#383838" stroke-width="2.0"/><text x="1472.5" y="746.5" class="body" font-size="19" fill="#707070" font-weight="450" text-anchor="middle">MLOps training</text>
<text x="1472.5" y="768.5" class="body" font-size="19" fill="#707070" font-weight="450" text-anchor="middle">pipeline</text></g><g opacity="0.62"><rect x="1755.0" y="725.0" width="525.0" height="51.0" rx="2" fill="#1f1f1f" stroke="#383838" stroke-width="2.0"/><text x="2017.5" y="746.5" class="body" font-size="19" fill="#707070" font-weight="450" text-anchor="middle">ModelCar</text>
<text x="2017.5" y="768.5" class="body" font-size="19" fill="#707070" font-weight="450" text-anchor="middle">edge promotion</text></g><rect x="365" y="825" width="250" height="150" rx="2" fill="#147878" stroke="#147878" stroke-width="0"/><text x="490.0" y="882.0" class="body" font-size="22" fill="#ffffff" font-weight="700" text-anchor="middle">GPU</text>
<text x="490.0" y="908.0" class="body" font-size="22" fill="#ffffff" font-weight="700" text-anchor="middle">acceleration</text>
<text x="490.0" y="934.0" class="body" font-size="22" fill="#ffffff" font-weight="700" text-anchor="middle">self-service</text><rect x="635" y="825" width="1675" height="150" rx="2" fill="#1f1f1f" stroke="#383838" stroke-width="2"/><g><rect x="665.0" y="849" width="388.75" height="76" rx="2" fill="#292929" stroke="#383838" stroke-width="2.0"/><rect x="665.0" y="849" width="10" height="76" rx="2" fill="#147878" stroke="#147878" stroke-width="0"/><text x="859.375" y="883.0" class="body" font-size="19" fill="#ffffff" font-weight="550" text-anchor="middle">GPU acceleration</text>
<text x="859.375" y="905.0" class="body" font-size="19" fill="#ffffff" font-weight="550" text-anchor="middle">and optimization</text></g><g><rect x="1073.75" y="849" width="388.75" height="76" rx="2" fill="#292929" stroke="#383838" stroke-width="2.0"/><rect x="1073.75" y="849" width="10" height="76" rx="2" fill="#147878" stroke="#147878" stroke-width="0"/><text x="1268.125" y="883.0" class="body" font-size="19" fill="#ffffff" font-weight="550" text-anchor="middle">Hardware</text>
<text x="1268.125" y="905.0" class="body" font-size="19" fill="#ffffff" font-weight="550" text-anchor="middle">profiles</text></g><g><rect x="1482.5" y="849" width="388.75" height="76" rx="2" fill="#292929" stroke="#383838" stroke-width="2.0"/><rect x="1482.5" y="849" width="10" height="76" rx="2" fill="#147878" stroke="#147878" stroke-width="0"/><text x="1676.875" y="883.0" class="body" font-size="19" fill="#ffffff" font-weight="550" text-anchor="middle">Self-service</text>
<text x="1676.875" y="905.0" class="body" font-size="19" fill="#ffffff" font-weight="550" text-anchor="middle">GPU access</text></g><g><rect x="1891.25" y="849" width="388.75" height="76" rx="2" fill="#292929" stroke="#383838" stroke-width="2.0"/><rect x="1891.25" y="849" width="10" height="76" rx="2" fill="#147878" stroke="#147878" stroke-width="0"/><text x="2085.625" y="883.0" class="body" font-size="19" fill="#ffffff" font-weight="550" text-anchor="middle">GPU telemetry</text>
<text x="2085.625" y="905.0" class="body" font-size="19" fill="#ffffff" font-weight="550" text-anchor="middle">and capacity</text></g><rect x="365" y="1000" width="250" height="220" rx="2" fill="#ee0000" stroke="#ee0000" stroke-width="0"/><text x="490.0" y="1092.0" class="body" font-size="22" fill="#ffffff" font-weight="700" text-anchor="middle">Container</text>
<text x="490.0" y="1118.0" class="body" font-size="22" fill="#ffffff" font-weight="700" text-anchor="middle">platform</text>
<text x="490.0" y="1144.0" class="body" font-size="22" fill="#ffffff" font-weight="700" text-anchor="middle">services</text><rect x="635" y="1000" width="1675" height="220" rx="2" fill="#1f1f1f" stroke="#383838" stroke-width="2"/><g><rect x="665.0" y="1024" width="388.75" height="76" rx="2" fill="#292929" stroke="#383838" stroke-width="2.0"/><rect x="665.0" y="1024" width="10" height="76" rx="2" fill="#ee0000" stroke="#ee0000" stroke-width="0"/><text x="859.375" y="1058.0" class="body" font-size="19" fill="#ffffff" font-weight="550" text-anchor="middle">Operators and</text>
<text x="859.375" y="1080.0" class="body" font-size="19" fill="#ffffff" font-weight="550" text-anchor="middle">lifecycle management</text></g><g><rect x="1073.75" y="1024" width="388.75" height="76" rx="2" fill="#292929" stroke="#383838" stroke-width="2.0"/><rect x="1073.75" y="1024" width="10" height="76" rx="2" fill="#ee0000" stroke="#ee0000" stroke-width="0"/><text x="1268.125" y="1058.0" class="body" font-size="19" fill="#ffffff" font-weight="550" text-anchor="middle">OpenShift GitOps</text>
<text x="1268.125" y="1080.0" class="body" font-size="19" fill="#ffffff" font-weight="550" text-anchor="middle">and Argo CD</text></g><g><rect x="1482.5" y="1024" width="388.75" height="76" rx="2" fill="#292929" stroke="#383838" stroke-width="2.0"/><rect x="1482.5" y="1024" width="10" height="76" rx="2" fill="#ee0000" stroke="#ee0000" stroke-width="0"/><text x="1676.875" y="1058.0" class="body" font-size="19" fill="#ffffff" font-weight="550" text-anchor="middle">OpenShift</text>
<text x="1676.875" y="1080.0" class="body" font-size="19" fill="#ffffff" font-weight="550" text-anchor="middle">Serverless</text></g><g><rect x="1891.25" y="1024" width="388.75" height="76" rx="2" fill="#292929" stroke="#383838" stroke-width="2.0"/><rect x="1891.25" y="1024" width="10" height="76" rx="2" fill="#ee0000" stroke="#ee0000" stroke-width="0"/><text x="2085.625" y="1058.0" class="body" font-size="19" fill="#ffffff" font-weight="550" text-anchor="middle">Service Mesh</text>
<text x="2085.625" y="1080.0" class="body" font-size="19" fill="#ffffff" font-weight="550" text-anchor="middle">networking</text></g><g><rect x="665.0" y="1120" width="388.75" height="76" rx="2" fill="#292929" stroke="#383838" stroke-width="2.0"/><rect x="665.0" y="1120" width="10" height="76" rx="2" fill="#ee0000" stroke="#ee0000" stroke-width="0"/><text x="859.375" y="1154.0" class="body" font-size="19" fill="#ffffff" font-weight="550" text-anchor="middle">Identity, RBAC,</text>
<text x="859.375" y="1176.0" class="body" font-size="19" fill="#ffffff" font-weight="550" text-anchor="middle">and multitenancy</text></g><g><rect x="1073.75" y="1120" width="388.75" height="76" rx="2" fill="#292929" stroke="#383838" stroke-width="2.0"/><rect x="1073.75" y="1120" width="10" height="76" rx="2" fill="#ee0000" stroke="#ee0000" stroke-width="0"/><text x="1268.125" y="1154.0" class="body" font-size="19" fill="#ffffff" font-weight="550" text-anchor="middle">Monitoring</text>
<text x="1268.125" y="1176.0" class="body" font-size="19" fill="#ffffff" font-weight="550" text-anchor="middle">and metrics</text></g><g opacity="0.62"><rect x="1482.5" y="1120" width="388.75" height="76" rx="2" fill="#1f1f1f" stroke="#383838" stroke-width="2.0"/><text x="1676.875" y="1154.0" class="body" font-size="19" fill="#707070" font-weight="450" text-anchor="middle">OpenShift Pipelines</text>
<text x="1676.875" y="1176.0" class="body" font-size="19" fill="#707070" font-weight="450" text-anchor="middle">(Tekton)</text></g><g><rect x="1891.25" y="1120" width="388.75" height="76" rx="2" fill="#292929" stroke="#383838" stroke-width="2.0"/><rect x="1891.25" y="1120" width="10" height="76" rx="2" fill="#ee0000" stroke="#ee0000" stroke-width="0"/><text x="2085.625" y="1154.0" class="body" font-size="19" fill="#ffffff" font-weight="550" text-anchor="middle">Routes, secrets,</text>
<text x="2085.625" y="1176.0" class="body" font-size="19" fill="#ffffff" font-weight="550" text-anchor="middle">and storage</text></g><rect x="365" y="1245" width="250" height="170" rx="2" fill="#ee0000" stroke="#ee0000" stroke-width="0"/><text x="490.0" y="1312.0" class="body" font-size="22" fill="#ffffff" font-weight="700" text-anchor="middle">Hybrid</text>
<text x="490.0" y="1338.0" class="body" font-size="22" fill="#ffffff" font-weight="700" text-anchor="middle">infrastructure</text>
<text x="490.0" y="1364.0" class="body" font-size="22" fill="#ffffff" font-weight="700" text-anchor="middle">and edge</text><rect x="635" y="1245" width="1675" height="170" rx="2" fill="#1f1f1f" stroke="#383838" stroke-width="2"/><g><rect x="665.0" y="1269.0" width="525.0" height="51.0" rx="2" fill="#292929" stroke="#383838" stroke-width="2.0"/><rect x="665.0" y="1269.0" width="10" height="51.0" rx="2" fill="#ee0000" stroke="#ee0000" stroke-width="0"/><text x="927.5" y="1290.5" class="body" font-size="19" fill="#ffffff" font-weight="550" text-anchor="middle">Cloud GPU</text>
<text x="927.5" y="1312.5" class="body" font-size="19" fill="#ffffff" font-weight="550" text-anchor="middle">cluster</text></g><g><rect x="1210.0" y="1269.0" width="525.0" height="51.0" rx="2" fill="#292929" stroke="#383838" stroke-width="2.0"/><rect x="1210.0" y="1269.0" width="10" height="51.0" rx="2" fill="#ee0000" stroke="#ee0000" stroke-width="0"/><text x="1472.5" y="1290.5" class="body" font-size="19" fill="#ffffff" font-weight="550" text-anchor="middle">GPU worker</text>
<text x="1472.5" y="1312.5" class="body" font-size="19" fill="#ffffff" font-weight="550" text-anchor="middle">nodes</text></g><g><rect x="1755.0" y="1269.0" width="525.0" height="51.0" rx="2" fill="#292929" stroke="#383838" stroke-width="2.0"/><rect x="1755.0" y="1269.0" width="10" height="51.0" rx="2" fill="#ee0000" stroke="#ee0000" stroke-width="0"/><text x="2017.5" y="1290.5" class="body" font-size="19" fill="#ffffff" font-weight="550" text-anchor="middle">Object storage</text>
<text x="2017.5" y="1312.5" class="body" font-size="19" fill="#ffffff" font-weight="550" text-anchor="middle">and data connections</text></g><g opacity="0.62"><rect x="665.0" y="1340.0" width="525.0" height="51.0" rx="2" fill="#1f1f1f" stroke="#383838" stroke-width="2.0"/><text x="927.5" y="1361.5" class="body" font-size="19" fill="#707070" font-weight="450" text-anchor="middle">Edge deployment</text>
<text x="927.5" y="1383.5" class="body" font-size="19" fill="#707070" font-weight="450" text-anchor="middle">target</text></g><g opacity="0.62"><rect x="1210.0" y="1340.0" width="525.0" height="51.0" rx="2" fill="#1f1f1f" stroke="#383838" stroke-width="2.0"/><text x="1472.5" y="1361.5" class="body" font-size="19" fill="#707070" font-weight="450" text-anchor="middle">MicroShift</text>
<text x="1472.5" y="1383.5" class="body" font-size="19" fill="#707070" font-weight="450" text-anchor="middle">edge runtime</text></g><g opacity="0.62"><rect x="1755.0" y="1340.0" width="525.0" height="51.0" rx="2" fill="#1f1f1f" stroke="#383838" stroke-width="2.0"/><text x="2017.5" y="1361.5" class="body" font-size="19" fill="#707070" font-weight="450" text-anchor="middle">Embedded</text>
<text x="2017.5" y="1383.5" class="body" font-size="19" fill="#707070" font-weight="450" text-anchor="middle">edge GitOps</text></g><rect x="440" y="1457" width="34" height="34" rx="2" fill="#151515" stroke="#147878" stroke-width="5"/><text x="498" y="1481" class="body" font-size="21" fill="#e0e0e0">New in this step</text><rect x="800" y="1457" width="34" height="34" rx="2" fill="#292929" stroke="#383838" stroke-width="2"/><rect x="800" y="1457" width="10" height="17" rx="0" fill="#147878" stroke="#147878" stroke-width="0"/><rect x="800" y="1474" width="10" height="17" rx="0" fill="#ee0000" stroke="#ee0000" stroke-width="0"/><rect x="800" y="1457" width="34" height="34" rx="2" fill="none" stroke="#383838" stroke-width="2"/><text x="858" y="1481" class="body" font-size="21" fill="#e0e0e0">Previously introduced</text><rect x="1225" y="1457" width="34" height="34" rx="2" fill="#1f1f1f" stroke="#383838" stroke-width="2" opacity="0.62"/><text x="1283" y="1481" class="body" font-size="21" fill="#e0e0e0">Not introduced yet</text><text x="1645" y="1481" class="body" font-size="21" fill="#c7c7c7">Border and stripe colors follow the product layer</text></g></svg>
